PathFileType	4	(X/Y/Z)	s03c0301.trc
DataRate	CameraRate	NumFrames	NumMarkers	Units	OrigDataRate	OrigDataStartFrame	OrigNumFrames
200	200	5	52	mm	200	1000	2000
Frame#	Time	racr			lacr			c7			jug			rlel			rdr			llel			ldr			s2			lic			ric			lasi			rasi			rpsi			lpsi			rgt			lgt			rth1			rth2			rth3			rth4			rlfc			rmfc			rsh1			rsh2			rsh3			rsh4			rlmal			rmmal			rcal			rtoe			rmt5			rmt1			lth1			lth2			lth4			lth3			llfc			lmfc			lsh1			lsh2			lsh3			lsh4			llmal			lmmal			lcal			ltoe			lmt1			lmt5			SBIKE			LBIKE			RBIKE			
		X1	Y1	Z1	X2	Y2	Z2	X3	Y3	Z3	X4	Y4	Z4	X5	Y5	Z5	X6	Y6	Z6	X7	Y7	Z7	X8	Y8	Z8	X9	Y9	Z9	X10	Y10	Z10	X11	Y11	Z11	X12	Y12	Z12	X13	Y13	Z13	X14	Y14	Z14	X15	Y15	Z15	X16	Y16	Z16	X17	Y17	Z17	X18	Y18	Z18	X19	Y19	Z19	X20	Y20	Z20	X21	Y21	Z21	X22	Y22	Z22	X23	Y23	Z23	X24	Y24	Z24	X25	Y25	Z25	X26	Y26	Z26	X27	Y27	Z27	X28	Y28	Z28	X29	Y29	Z29	X30	Y30	Z30	X31	Y31	Z31	X32	Y32	Z32	X33	Y33	Z33	X34	Y34	Z34	X35	Y35	Z35	X36	Y36	Z36	X37	Y37	Z37	X38	Y38	Z38	X39	Y39	Z39	X40	Y40	Z40	X41	Y41	Z41	X42	Y42	Z42	X43	Y43	Z43	X44	Y44	Z44	X45	Y45	Z45	X46	Y46	Z46	X47	Y47	Z47	X48	Y48	Z48	X49	Y49	Z49	X50	Y50	Z50	X51	Y51	Z51	X52	Y52	Z52	
1000	5.0000	723.793974	1450.714019	-167.175823	646.049134	1492.310709	-473.120175	635.772626	1567.516824	-303.735702	619.490539	1390.335352	-320.053134	641.104174	1198.484391	-24.451158	750.847637	935.900757	-55.905674	590.237841	1207.622972	-518.449924	739.358350	949.630546	-435.957649	111.168215	1313.440581	-213.917582	243.432987	1357.601252	-414.654993	304.374553	1324.367993	-55.182448	278.016564	1279.289985	-379.360561	321.707606	1260.003753	-104.150701	147.875582	1358.592649	-167.067869	138.981623	1365.990080	-248.432765	223.849091	1206.231785	-42.271402	218.084296	1251.935098	-431.493800	271.201579	1057.248251	-34.833065	320.415288	983.674956	-39.987166	329.038338	898.946659	-45.354203	353.223187	996.001419	-50.227313	344.926923	769.131027	-64.766949	343.809292	748.709456	-182.102467	251.244123	627.654053	-33.256337	228.035763	542.465771	-44.631595	164.807132	480.332233	-45.091646	254.331383	528.690365	-68.557594	91.420546	372.070460	-63.406647	120.238992	368.786637	-143.149430	23.003562	377.008884	-100.935209	239.054059	154.035307	-115.986641	145.534458	222.943690	-41.041914	172.809975	221.153767	-157.071167	318.628854	1134.960752	-461.620751	395.081703	1095.519855	-472.168939	419.918953	1121.433219	-464.259308	442.947564	1019.935640	-473.706553	552.805438	935.660904	-462.644638	563.875045	925.773442	-332.795537	450.793219	791.835004	-469.816641	423.398887	713.722319	-446.439634	355.197966	655.290032	-437.264368	450.973890	699.094310	-423.945051	280.338653	552.913667	-412.196780	315.941471	564.162485	-322.773097	204.474919	522.699403	-361.939440	502.182875	440.585217	-358.161766	409.145697	458.692595	-317.294639	381.706423	446.257062	-432.880250	-214.609158	945.527621	-232.734116	-9.509662	81.179417	-433.447583	-9.675082	81.344740	-32.878732	
1001	5.0050	723.505390	1450.710512	-167.989279	645.043450	1492.192518	-474.711205	635.583299	1567.674644	-305.100879	618.528307	1390.509879	-320.795177	640.629514	1198.991124	-24.512715	750.394430	936.104083	-55.951388	588.247820	1208.049069	-519.530933	738.639768	950.323138	-436.988551	110.450148	1316.014676	-215.200660	243.064808	1357.985179	-415.550793	303.278184	1327.889295	-55.126317	276.952118	1278.958935	-379.376019	320.748514	1262.698085	-103.413611	147.037768	1361.766153	-168.024459	138.608765	1368.131984	-249.996619	223.238216	1210.398103	-41.638388	216.705185	1250.907677	-431.167125	274.670673	1060.662168	-34.082507	325.431661	988.076723	-39.613949	335.969275	903.590602	-44.629741	357.843861	1001.115974	-50.140202	353.721388	773.679930	-62.985230	352.766235	752.771812	-180.197161	255.565143	634.140262	-31.820880	229.986281	549.621918	-43.682973	165.182356	489.291602	-44.524031	256.179191	535.147442	-67.373042	89.120152	382.400025	-63.297658	116.251475	377.947705	-143.691011	20.852019	388.642396	-101.168041	231.709928	160.421331	-115.656968	139.778457	231.679598	-40.946839	167.224191	229.282766	-156.780383	315.320142	1131.441200	-460.805703	390.945044	1090.500094	-471.253035	416.496682	1116.082232	-464.311971	437.415955	1013.989011	-471.626626	545.772219	928.242031	-460.783165	557.551736	918.615027	-333.192206	446.952487	782.037665	-468.193875	421.346661	703.473362	-444.562802	354.705256	643.250113	-435.372538	449.525712	689.197846	-420.935890	281.983579	539.744481	-410.248011	317.724079	551.594787	-321.130858	207.139774	507.097576	-359.212152	507.660798	436.076446	-361.759296	414.415612	450.314567	-317.736504	385.676665	437.265705	-433.612970	-214.578113	945.577575	-233.019111	-9.537692	81.150588	-433.488344	-9.687822	81.382626	-32.897011	
1002	5.0100	723.143422	1450.683170	-168.678584	644.362204	1491.900688	-476.309485	635.472230	1567.700148	-306.497084	617.737737	1390.543930	-321.517560	640.756443	1199.511146	-24.448212	750.058627	936.197451	-55.857226	586.921497	1208.392891	-520.547685	738.024226	950.720424	-437.765160	109.630818	1317.948986	-216.212925	242.903856	1357.895027	-416.441120	302.210164	1331.108267	-55.177266	275.835764	1278.401311	-379.553218	319.827287	1265.081981	-102.693999	146.873669	1364.118687	-170.141634	138.276904	1369.956423	-251.523005	222.926335	1214.324788	-41.102826	215.204744	1249.421108	-430.685681	278.329593	1063.826993	-33.212684	330.578389	992.358288	-39.219757	342.978469	908.131550	-43.892937	362.513410	1006.032676	-49.913745	362.422004	778.275298	-61.321541	361.965461	756.782677	-178.024387	260.378161	640.506004	-30.423299	232.646005	556.832601	-42.577939	166.232920	498.207750	-43.680901	258.565769	541.624061	-65.970688	87.783470	392.875984	-62.502992	115.818988	388.855604	-142.231695	19.812576	400.418831	-100.653981	224.832286	166.905695	-115.590318	134.663174	240.364864	-40.801324	162.150577	237.429987	-156.587513	311.834302	1127.443517	-459.924054	386.630249	1084.851848	-470.217704	412.695849	1110.070485	-464.011009	431.626408	1007.486130	-469.487511	538.466046	920.127593	-459.107057	549.019433	911.605427	-328.648539	442.762647	771.810277	-466.289980	419.141170	692.707738	-442.510233	354.088321	630.744996	-433.254626	447.600688	679.259624	-418.785752	283.698012	526.033654	-408.020724	318.794147	538.659856	-319.935510	209.719157	491.491270	-356.608153	512.684465	429.717743	-362.985764	419.259998	441.388574	-318.092956	389.339575	428.319525	-434.608858	-214.550281	945.591182	-233.356394	-9.561375	81.112846	-433.529391	-9.712210	81.436046	-32.930241	
1003	5.0150	722.721329	1450.669216	-169.340934	644.002058	1491.580103	-477.756306	635.429153	1567.613320	-307.832703	617.172941	1390.459659	-322.244801	641.111166	1200.055794	-24.083413	749.819824	936.316500	-55.773031	586.132109	1208.747739	-521.527185	737.275254	951.205463	-438.335300	110.168656	1319.051149	-217.513076	242.858487	1357.319265	-417.445690	301.204655	1333.921418	-55.396406	274.704492	1277.448859	-379.721384	319.029820	1267.100095	-102.254888	146.891777	1366.108163	-172.758798	138.101967	1371.085186	-253.209469	222.858907	1217.900044	-40.549731	213.649385	1247.545551	-430.277757	281.720396	1066.909776	-32.648864	335.685546	996.586129	-38.723159	350.418130	912.660373	-43.041198	367.255069	1010.924435	-49.540215	370.957275	782.807483	-59.643408	371.207056	760.808611	-175.924535	265.628595	646.628917	-29.013687	235.489167	563.872619	-41.690817	167.941818	506.791701	-42.598906	261.388609	547.991069	-64.671382	87.256604	402.718768	-61.836148	117.033530	399.273113	-140.524281	18.985539	411.834135	-100.571127	218.608204	173.612021	-115.534602	130.202210	249.214825	-40.683008	157.991490	246.009441	-156.060181	308.338415	1123.055765	-459.498594	382.031423	1078.824693	-469.230791	408.476013	1103.725735	-463.998051	425.579111	1000.550140	-467.445163	530.738720	911.638704	-457.078418	541.970668	903.900650	-327.951662	438.242159	761.070313	-464.161853	416.705830	681.543937	-440.062684	353.321611	617.911316	-430.849462	445.147911	669.150792	-416.958675	285.043082	512.554685	-405.939615	323.643309	526.211178	-314.236233	212.146496	475.766393	-354.242083	517.027648	422.747139	-364.355862	423.639199	431.981039	-318.313850	393.022895	418.191120	-434.114119	-214.476703	945.609787	-233.662486	-9.575469	81.057876	-433.552407	-9.705463	81.465319	-32.958431	
1004	5.0200	722.466582	1450.680583	-169.852211	643.915050	1491.096248	-479.131109	635.443831	1567.293403	-309.159838	617.024636	1390.101475	-322.873989	641.888792	1200.511956	-23.556211	749.732130	936.427163	-55.635910	585.927905	1208.963992	-522.416370	736.817997	951.461421	-439.043993	110.164424	1320.588054	-219.175485	243.796492	1356.997596	-419.932868	300.367459	1336.333674	-55.745995	273.676633	1276.170300	-379.913068	318.329725	1268.707890	-102.029490	146.506490	1367.417507	-172.355547	137.890845	1371.723062	-254.677018	222.937300	1220.904707	-40.241762	211.990517	1245.314385	-429.904393	285.402617	1069.821296	-31.732073	340.801802	1000.628207	-38.134614	357.328713	916.999115	-42.207807	371.954129	1015.592056	-48.992601	379.294630	787.185796	-57.893362	380.246685	764.947484	-174.551195	271.194110	652.520556	-27.541612	239.102598	570.516266	-40.339798	170.273477	515.083552	-41.330607	264.673849	554.037885	-63.420368	86.997568	412.801916	-60.843598	117.987082	406.962981	-140.321535	19.120640	423.686358	-99.710613	212.971914	180.718390	-115.526602	126.471018	258.180365	-40.447163	149.969058	252.577516	-158.462606	304.631773	1118.312939	-458.668532	377.334224	1072.424869	-468.130129	404.347292	1096.942629	-463.584452	419.372986	993.413279	-465.467540	522.648949	902.897952	-455.430563	535.483683	895.133396	-328.093447	433.394251	750.095158	-462.068896	413.919264	670.189108	-437.525213	352.337495	604.904956	-428.365716	442.753941	658.706609	-414.493261	286.092935	499.072326	-403.834822	325.145551	512.806949	-311.926289	214.309596	460.139162	-351.745158	520.862932	415.277800	-365.575603	427.537723	422.148759	-318.406710	396.030845	407.693986	-433.493165	-214.409220	945.573478	-233.910072	-9.595443	80.962742	-433.578958	-9.692544	81.432465	-32.996811	
